<?xml version="1.0" standalone="no"?>
<!DOCTYPE svg PUBLIC "-//W3C//DTD SVG 20010904//EN"
 "http://www.w3.org/TR/2001/REC-SVG-20010904/DTD/svg10.dtd">
<svg version="1.0" xmlns="http://www.w3.org/2000/svg"
 width="788.000000pt" height="788.000000pt" viewBox="0 0 788.000000 788.000000"
 preserveAspectRatio="xMidYMid meet">
<metadata>
Created by potrace 1.11, written by Peter Selinger 2001-2013
</metadata>
<g transform="translate(0.000000,788.000000) scale(0.100000,-0.100000)"
fill="#000000" stroke="none">
<path d="M1201 7855 c-86 -30 -129 -54 -270 -149 -135 -91 -171 -125 -171
-162 1 -33 15 -56 46 -72 35 -19 60 -10 136 46 171 127 295 193 375 198 50 3
54 1 81 -34 84 -105 163 -320 228 -618 29 -132 27 -122 48 -254 24 -152 29
-186 40 -290 3 -30 8 -71 11 -90 11 -83 32 -400 41 -630 2 -58 4 -574 4 -1147
l1 -1043 79 0 c44 0 80 3 80 8 0 4 2 340 4 747 2 407 7 781 9 830 12 197 21
308 32 395 2 19 7 64 11 100 3 36 7 67 9 70 2 3 6 32 10 65 20 189 135 647
200 800 7 17 30 71 50 120 51 123 123 264 202 398 78 133 164 222 274 284 118
66 106 69 196 -54 97 -132 524 -729 538 -752 6 -9 12 -18 15 -21 3 -3 48 -63
99 -134 l94 -128 -7 -337 c-4 -185 -9 -358 -11 -386 -1 -27 -6 -117 -9 -200
-12 -263 -17 -378 -21 -450 -7 -124 -16 -492 -20 -805 -2 -168 -7 -440 -11
-605 -13 -514 -8 -1105 11 -1285 2 -19 6 -66 10 -105 17 -190 43 -369 76 -524
11 -51 22 -101 24 -110 26 -130 119 -412 187 -571 181 -415 382 -692 594 -818
170 -101 346 -140 614 -137 242 2 410 41 625 145 140 68 354 203 427 270 9 8
41 35 71 60 73 60 316 305 402 405 38 44 109 134 158 200 48 66 94 127 100
135 15 18 110 161 117 175 3 6 22 35 42 66 20 31 44 71 53 89 23 45 13 91 -24
113 -57 34 -85 18 -146 -83 -347 -577 -801 -1046 -1219 -1259 -228 -117 -375
-155 -601 -155 -176 -1 -255 7 -348 33 -144 42 -237 97 -342 205 -58 60 -175
214 -175 232 0 2 -11 21 -23 42 -118 186 -249 498 -322 762 -30 109 -44 169
-70 295 -15 74 -55 365 -61 438 -3 45 -8 98 -10 117 -19 173 -23 725 -10 1230
4 162 9 435 11 605 5 349 13 705 20 810 2 39 7 142 10 230 4 88 8 185 10 215
8 145 22 528 24 659 1 97 -2 98 81 -14 24 -33 50 -66 56 -75 7 -8 52 -64 100
-125 48 -60 101 -126 118 -145 17 -20 51 -60 76 -90 25 -30 52 -61 60 -70 8
-9 42 -47 75 -85 33 -39 64 -75 70 -81 180 -195 211 -224 241 -230 21 -4 40
-1 53 8 12 8 60 93 109 189 89 178 213 390 418 718 163 260 275 453 354 610
37 75 70 143 73 151 11 29 -5 -799 -28 -1450 -2 -63 -7 -212 -10 -330 -3 -118
-8 -269 -10 -335 -10 -280 -23 -905 -24 -1152 l-1 -133 -274 0 -273 0 -27 -25
c-14 -13 -26 -33 -26 -45 0 -29 26 -76 45 -84 9 -3 351 -6 759 -6 l743 0 27
25 c14 13 26 33 26 45 0 29 -26 76 -45 84 -9 3 -192 6 -406 6 l-390 0 6 398
c3 218 7 458 10 532 2 74 6 230 10 345 3 116 8 262 10 325 3 63 7 192 9 285 3
94 8 262 12 375 3 113 7 255 9 315 2 61 7 331 10 602 l7 492 -27 25 c-23 21
-36 24 -93 24 -79 0 -106 -15 -123 -66 -39 -124 -162 -383 -269 -567 -28 -49
-127 -210 -218 -357 -92 -147 -172 -275 -177 -285 -6 -10 -42 -72 -82 -138
-39 -66 -100 -175 -135 -241 l-63 -122 -66 72 c-60 65 -125 139 -264 301 -27
32 -92 110 -143 174 -51 64 -100 124 -108 135 -25 29 -149 192 -217 282 l-60
81 -2 294 c-2 162 -5 303 -8 314 -2 11 -8 45 -13 75 -4 30 -8 57 -9 60 -60
289 -199 466 -424 539 -321 105 -762 -37 -977 -314 -44 -56 -131 -203 -197
-331 -107 -210 -206 -473 -263 -694 -27 -108 -44 -154 -42 -115 1 11 -2 58 -6
105 -13 153 -23 233 -47 405 -18 134 -22 158 -34 215 -3 14 -8 41 -11 60 -11
57 -12 63 -24 115 -6 28 -13 59 -16 70 -24 123 -116 390 -166 483 -84 155
-140 200 -256 208 -55 4 -81 0 -141 -21z m2057 -320 c122 -15 252 -104 309
-212 49 -91 70 -165 98 -333 3 -19 8 -114 10 -210 l6 -175 -21 25 c-11 14 -23
30 -28 35 -9 12 -506 707 -536 750 -12 17 -23 32 -26 35 -28 26 -64 99 -42 87
4 -2 30 -1 57 3 49 6 86 5 173 -5z"/>
</g>
</svg>
